PathFileType	4	(X/Y/Z)	c:/Users/goper/Files/vsCode/490R/osim_files/C10/C10_SSWS_03.trc
DataRate	CameraRate	NumFrames	NumMarkers	Units                	OrigDataRate	OrigDataStartFrame	OrigNumFrames
250.00	250.00	4	36	mm	250.0	1173	2345
                Frame#	Time	LPSIS			LASIS			LTH1			LTH2			LTH3			LTH4			LLFE			LMFE			LSH1			LSH2			LSH3			LSH4			LLMAL			LMMAL			LCAL			LMTP5			LTOE			LMTP1			RPSIS			RASIS			RTH1			RTH2			RTH3			RTH4			RLFE			RMFE			RSH1			RSH2			RSH3			RSH4			RLMAL			RMMAL			RCAL			RMTP1			RTOE			RMTP5		
		X1	Y1	Z1	X2	Y2	Z2	X3	Y3	Z3	X4	Y4	Z4	X5	Y5	Z5	X6	Y6	Z6	X7	Y7	Z7	X8	Y8	Z8	X9	Y9	Z9	X10	Y10	Z10	X11	Y11	Z11	X12	Y12	Z12	X13	Y13	Z13	X14	Y14	Z14	X15	Y15	Z15	X16	Y16	Z16	X17	Y17	Z17	X18	Y18	Z18	X19	Y19	Z19	X20	Y20	Z20	X21	Y21	Z21	X22	Y22	Z22	X23	Y23	Z23	X24	Y24	Z24	X25	Y25	Z25	X26	Y26	Z26	X27	Y27	Z27	X28	Y28	Z28	X29	Y29	Z29	X30	Y30	Z30	X31	Y31	Z31	X32	Y32	Z32	X33	Y33	Z33	X34	Y34	Z34	X35	Y35	Z35	X36	Y36	Z36

1173	4.68800	-747.40796	1010.18195	320.85574	-913.34747	1009.02026	447.49872	-901.38885	769.37653	490.60037	-917.99847	725.85181	480.55771	-958.40259	787.10022	468.91522	-965.89081	742.35907	460.66245	0.00000	0.00000	0.00000	-961.65869	489.30341	277.11612	0.00000	0.00000	0.00000	-920.05042	353.99704	404.78830	-977.71106	398.61191	384.54010	-969.58405	352.68344	386.08810	-922.10370	88.03843	348.52740	0.00000	0.00000	0.00000	-846.86481	41.44390	308.87326	-1024.31055	31.35377	360.11859	-1071.99890	50.87094	293.67206	-1034.50391	26.75946	250.54544	-747.09552	1007.18597	238.92303	-894.76917	985.58386	110.99802	-875.64868	715.87701	80.30044	-896.58612	675.71234	83.45333	-933.78094	737.20831	80.92413	-946.55420	695.24451	84.58070	-965.70233	468.96249	133.14973	-986.61981	458.07953	248.65588	-861.46143	455.40314	130.31093	-830.22540	424.92551	128.39162	-900.72455	405.18597	130.97545	-862.68286	383.95993	127.21793	-636.22864	243.72774	174.22266	-655.80139	238.03044	253.44989	-567.40063	267.24701	215.29485	-656.20233	101.19853	252.77736	-689.21826	83.00517	219.11371	-649.68073	109.68636	155.06935
1174	4.69200	-752.11371	1011.60217	321.22272	-918.40173	1009.77087	447.50018	-904.81830	769.92401	490.81201	-921.06012	726.29376	480.78546	-962.18256	787.22870	469.41074	-969.43530	742.69287	461.01324	0.00000	0.00000	0.00000	-969.02063	490.95508	340.07150	-919.53668	401.24704	405.64050	-920.50586	354.02621	404.90936	-978.30951	398.52438	384.70673	-970.07764	352.63928	386.18839	-918.72852	86.71825	350.18179	0.00000	0.00000	0.00000	-846.88251	41.42503	308.87177	-1024.36890	31.23956	360.01987	-1072.03699	50.81615	293.66528	-1034.50049	26.75388	250.49934	-751.78314	1008.46838	239.32021	-899.35828	986.49323	111.18303	-883.28632	716.88086	80.13640	-904.68420	676.94891	83.50356	-940.20288	738.87183	80.99082	-952.77094	695.94000	85.42651	-976.09949	470.98151	133.30980	-997.30487	460.60962	249.03578	-871.92078	455.90308	130.26682	-841.36963	424.70743	128.49185	-911.80682	406.12543	131.33580	-874.01959	384.51202	127.61717	-649.18781	242.13332	174.94257	-669.13397	236.04932	254.06964	-579.74042	263.48810	216.75764	-673.69080	99.28408	251.53856	-706.45642	82.42856	217.54840	-665.73309	109.00724	154.15475
1175	4.69600	-756.82416	1012.94061	321.52173	-923.46240	1010.52588	447.39362	-908.29645	770.53290	491.03250	-924.09833	726.70746	481.13120	-965.93292	787.35730	469.94867	-972.96588	743.04346	461.40369	0.00000	0.00000	0.00000	-974.11951	491.97388	389.90054	-920.24359	401.34378	405.00974	-920.94110	354.10696	405.04230	-978.76648	398.43561	384.90674	-970.38123	352.53778	386.36600	-918.78577	86.71878	350.13736	0.00000	0.00000	0.00000	-846.91028	41.44048	308.86618	-1024.33154	31.30422	360.09985	-1072.06897	50.76006	293.66782	-1034.48999	26.74512	250.45418	-756.53748	1009.69104	239.66916	-903.99432	987.38763	111.36576	-890.87164	717.89966	80.02863	-912.67554	678.23138	83.53355	-948.57111	740.73804	81.30550	-961.32153	698.18915	85.71295	-986.35211	473.01648	133.75804	-1007.80341	463.20709	249.43465	-882.18762	456.32458	130.21344	-851.81317	425.01730	128.63324	-922.75476	407.11777	131.74608	-885.19885	385.04562	128.05272	-662.30713	240.31990	175.63649	-682.60205	233.89778	254.76434	-592.29016	259.44424	218.18288	-690.38190	97.27835	250.29645	-723.59363	81.64861	215.87831	-682.29626	108.35073	152.96928
1176	4.70000	-761.52502	1014.20483	321.78687	-928.36121	1011.12830	447.37845	-911.64777	771.09344	491.30188	-927.01416	727.19415	481.48233	-969.20697	787.79980	470.75827	-976.36816	743.32404	461.83072	0.00000	0.00000	0.00000	-968.37250	490.08948	346.28958	-920.54340	401.46490	405.09192	-921.21637	354.23886	405.11481	-979.11963	398.43610	385.03879	-970.66809	352.50327	386.47656	-918.78149	86.73888	350.06500	0.00000	0.00000	0.00000	-846.87036	41.47594	308.82916	-1024.38928	31.21040	359.99667	-1072.09900	50.72513	293.63986	-1034.47351	26.73360	250.41006	-761.19501	1010.84924	239.92068	-908.67480	988.35681	111.60176	-898.25836	718.99365	79.86162	-920.44745	679.47589	83.53887	-956.03180	742.62799	81.93596	-968.95062	699.78156	86.03685	-996.39111	475.06528	134.21600	-1018.25824	465.90378	249.79277	-892.28107	456.69482	130.14665	-861.98767	425.28091	128.79655	-933.59723	408.01697	132.13748	-896.32281	385.49030	128.51367	-675.51385	238.24641	176.34334	-696.17853	231.53668	255.32761	-605.02753	255.17650	219.56914	-707.47284	95.02000	248.88701	-740.92712	80.81861	214.12694	-698.80994	107.56606	151.82983
